<?xml version="1.0" encoding="iso-8859-1"?>
<!-- Generator: Adobe Illustrator 19.0.0, SVG Export Plug-In . SVG Version: 6.00 Build 0)  -->
<svg xmlns="http://www.w3.org/2000/svg" xmlns:xlink="http://www.w3.org/1999/xlink" version="1.1" id="Capa_1" x="0px" y="0px" viewBox="0 0 512 512" style="enable-background:new 0 0 512 512;" xml:space="preserve" width="512" height="512">
<g>
	<path style="fill:#DBEAFF;" d="M495.484,66.065H16.516C7.395,66.065,0,58.67,0,49.548v0c0-9.122,7.395-16.516,16.516-16.516   h478.968c9.122,0,16.516,7.395,16.516,16.516v0C512,58.67,504.605,66.065,495.484,66.065z"/>
	<path style="fill:#DBEAFF;" d="M487.226,66.065H24.774C11.092,66.065,0,77.156,0,90.839s11.092,24.774,24.774,24.774h31.8   c10.045,0,18.425,7.673,19.308,17.679l21.763,246.643c0.822,9.311,8.62,16.452,17.968,16.452s17.146-7.141,17.968-16.452   l21.485-243.497c1.04-11.786,10.912-20.825,22.744-20.825c11.612,0,21.374,8.716,22.685,20.254l37.124,326.69   c1.063,9.349,8.972,16.411,18.381,16.411c9.409,0,17.319-7.062,18.381-16.411l37.471-329.75   c1.113-9.795,9.401-17.194,19.259-17.194c9.166,0,17.079,6.42,18.967,15.39l26.39,125.352c1.983,9.419,10.293,16.162,19.919,16.162   c9.626,0,17.935-6.743,19.919-16.162l26.39-125.352c1.888-8.969,9.801-15.39,18.967-15.39h25.563   c13.682,0,24.774-11.092,24.774-24.774S500.908,66.065,487.226,66.065z"/>
	<path style="fill:#C3DDFF;" d="M156.903,90.839H512c0-13.682-11.092-24.774-24.774-24.774l-461.05,0   c-13.415,0-25.439,10.045-26.141,23.442c-0.748,14.287,10.615,26.106,24.739,26.106h31.801c10.044,0,18.425,7.673,19.308,17.679   l21.763,246.643c0.822,9.311,8.62,16.452,17.968,16.452V132.129C115.613,109.325,134.099,90.839,156.903,90.839z"/>
	<path style="fill:#C3DDFF;" d="M177.809,115.613c11.612,0,21.374,8.716,22.685,20.254l37.124,326.69   c1.063,9.349,8.972,16.411,18.381,16.411V165.161c0-27.365-22.184-49.548-49.548-49.548H177.809z"/>
	<path style="fill:#C3DDFF;" d="M331.111,115.613c9.166,0,17.079,6.42,18.967,15.39l26.39,125.352   c1.983,9.419,10.293,16.162,19.919,16.162V156.903c0-22.804-18.486-41.29-41.29-41.29H331.111z"/>
	<path style="fill:#EDF4FF;" d="M478.968,49.548H33.032c-4.561,0-8.258-3.697-8.258-8.258v0c0-4.561,3.697-8.258,8.258-8.258   h445.935c4.561,0,8.258,3.697,8.258,8.258v0C487.226,45.851,483.529,49.548,478.968,49.548z"/>
</g>















</svg>
